<svg xmlns="http://www.w3.org/2000/svg" width="240" height="60" viewBox="0 0 280 70" fill="none">
  <path d="M22 5 C52 1 90 0 132 2 C174 0 212 1 242 5 C254 11 258 21 256 34 C258 47 252 57 240 62 C210 67 172 69 132 67 C92 69 54 67 24 62 C12 57 6 47 8 34 C6 21 10 11 22 5Z"
    fill="#c0c0c0" stroke="#c0c0c0" stroke-width="10" stroke-linejoin="round" transform="translate(3,4)"/>
  <path d="M22 5 C52 1 90 0 132 2 C174 0 212 1 242 5 C254 11 258 21 256 34 C258 47 252 57 240 62 C210 67 172 69 132 67 C92 69 54 67 24 62 C12 57 6 47 8 34 C6 21 10 11 22 5Z"
    fill="#fff" stroke="#fff" stroke-width="10" stroke-linejoin="round"/>
  <path d="M22 5 C52 1 90 0 132 2 C174 0 212 1 242 5 C254 11 258 21 256 34 C258 47 252 57 240 62 C210 67 172 69 132 67 C92 69 54 67 24 62 C12 57 6 47 8 34 C6 21 10 11 22 5Z"
    fill="#fff" stroke="#1a1a1a" stroke-width="5" stroke-linejoin="round"/>
  <text x="122" y="34" text-anchor="middle" dominant-baseline="central"
    font-family="'Arial Black','Helvetica Neue',sans-serif"
    font-size="20" font-weight="900" fill="#1a1a1a" letter-spacing="2">LOAD MORE</text>
  <path d="M208 24 L208 40 M202 34 L208 42 L214 34"
    fill="none" stroke="#1a1a1a" stroke-width="5"
    stroke-linecap="round" stroke-linejoin="round"/>
</svg>
