<svg xmlns="http://www.w3.org/2000/svg" width="280" height="68" viewBox="0 0 320 84" fill="none">
  <path d="M26 6 C58 2 96 0 148 2 C200 0 238 2 268 6 C280 12 284 23 282 38 C284 53 278 63 266 69 C236 74 198 76 148 74 C98 76 60 74 30 69 C18 63 12 53 14 38 C12 23 16 12 26 6Z"
    fill="#c8c8c8" stroke="#c8c8c8" stroke-width="12" stroke-linejoin="round" transform="translate(4,5)"/>
  <path d="M26 6 C58 2 96 0 148 2 C200 0 238 2 268 6 C280 12 284 23 282 38 C284 53 278 63 266 69 C236 74 198 76 148 74 C98 76 60 74 30 69 C18 63 12 53 14 38 C12 23 16 12 26 6Z"
    fill="#fff" stroke="#fff" stroke-width="12" stroke-linejoin="round"/>
  <path d="M26 6 C58 2 96 0 148 2 C200 0 238 2 268 6 C280 12 284 23 282 38 C284 53 278 63 266 69 C236 74 198 76 148 74 C98 76 60 74 30 69 C18 63 12 53 14 38 C12 23 16 12 26 6Z"
    fill="#fff" stroke="#1a1a1a" stroke-width="3.5" stroke-linejoin="round"/>
  <text x="134" y="38" text-anchor="middle" dominant-baseline="central"
    font-family="'Arial Black','Helvetica Neue',sans-serif"
    font-size="22" font-weight="900" fill="#1a1a1a" letter-spacing="2">LOAD MORE</text>
  <path d="M224 30 L224 44 M218 37 L224 44 L230 37"
    fill="none" stroke="#1a1a1a" stroke-width="3.5"
    stroke-linecap="round" stroke-linejoin="round"/>
</svg>
