<svg xmlns="http://www.w3.org/2000/svg" width="72" height="100" viewBox="0 0 72 100" fill="none">
  <defs>
    <filter id="sticker" x="-25%" y="-15%" width="150%" height="130%">
      <feMorphology in="SourceAlpha" operator="dilate" radius="4" result="e"/>
      <feFlood flood-color="#ffffff" result="w"/>
      <feComposite in="w" in2="e" operator="in" result="wo"/>
      <feOffset dx="3" dy="4" in="e" result="so"/>
      <feFlood flood-color="#bebebe" result="sc"/>
      <feComposite in="sc" in2="so" operator="in" result="s"/>
      <feMerge>
        <feMergeNode in="s"/>
        <feMergeNode in="wo"/>
        <feMergeNode in="SourceGraphic"/>
      </feMerge>
    </filter>
  </defs>
  <g filter="url(#sticker)" transform="translate(8,6)">
    <path d="M14 6 L58 6 L58 84 L36 70 L14 84 Z" fill="#1a1a1a" transform="translate(3,3)"/>
    <path d="M14 6 L58 6 L58 84 L36 70 L14 84 Z" fill="#ffffff" stroke="#1a1a1a" stroke-width="3" stroke-linejoin="round"/>
    <path d="M14 6 L58 6 L58 22 L14 22 Z" fill="#1a1a1a"/>
    <path d="M14 4 L58 4 L58 20 L14 20 Z" fill="#1a1a1a" stroke="#1a1a1a" stroke-width="2.8" stroke-linejoin="round"/>
    <line x1="14" y1="36" x2="58" y2="36" stroke="#1a1a1a" stroke-width="2" stroke-dasharray="4 3"/>
    <path d="M36 48 l3.5 8 8.5 0.8-6.3 5.6 2 8.1L36 66l-7.7 4.5 2-8.1-6.3-5.6 8.5-0.8z" fill="#ffffff" stroke="#1a1a1a" stroke-width="2.5" stroke-linejoin="round"/>
  </g>
</svg>
