<svg xmlns="http://www.w3.org/2000/svg" width="80" height="80" viewBox="0 0 96 96" fill="none">
  <path d="M20 6 L60 6 L60 74 L40 62 L20 74 Z" fill="#c8c8c8" stroke="#c8c8c8" stroke-width="12" stroke-linejoin="round" transform="translate(4,5)"/>
  <path d="M20 6 L60 6 L60 74 L40 62 L20 74 Z" fill="#fff" stroke="#fff" stroke-width="12" stroke-linejoin="round"/>
  <path d="M20 6 L60 6 L60 74 L40 62 L20 74 Z" fill="#fff" stroke="#1a1a1a" stroke-width="3.5" stroke-linejoin="round"/>
  <rect x="20" y="6" width="40" height="16" fill="#1a1a1a"/>
  <line x1="20" y1="32" x2="60" y2="32" stroke="#1a1a1a" stroke-width="2" stroke-dasharray="4 3"/>
  <path d="M40 40 L42.4 47.4 L50.2 47.4 L44 52 L46.4 59.4 L40 55 L33.6 59.4 L36 52 L29.8 47.4 L37.6 47.4 Z" fill="#fff" stroke="#1a1a1a" stroke-width="2.5" stroke-linejoin="round"/>
</svg>
