<svg xmlns="http://www.w3.org/2000/svg" width="80" height="80" viewBox="0 0 96 96" fill="none">
  <!-- shadow -->
  <path d="M 31.87 17.42 L 36.25 16.30 L 37.18 4.11 L 42.82 4.11 L 43.75 16.30 L 46.70 16.95 L 50.90 18.62 L 58.81 9.30 L 63.38 12.63 L 56.97 23.03 L 58.96 25.29 L 61.38 29.10 L 73.26 26.22 L 75.01 31.60 L 63.70 36.25 L 63.99 39.25 L 63.70 43.75 L 75.01 48.40 L 73.26 53.78 L 61.38 50.90 L 59.85 53.49 L 56.97 56.97 L 63.38 67.37 L 58.81 70.70 L 50.90 61.38 L 48.13 62.58 L 43.75 63.70 L 42.82 75.89 L 37.18 75.89 L 36.25 63.70 L 33.30 63.05 L 29.10 61.38 L 21.19 70.70 L 16.62 67.37 L 23.03 56.97 L 21.04 54.71 L 18.62 50.90 L 6.74 53.78 L 4.99 48.40 L 16.30 43.75 L 16.01 40.75 L 16.30 36.25 L 4.99 31.60 L 6.74 26.22 L 18.62 29.10 L 20.15 26.51 L 23.03 23.03 L 16.62 12.63 L 21.19 9.30 L 29.10 18.62 Z" fill="#c8c8c8" stroke="#c8c8c8" stroke-width="10" stroke-linejoin="miter" stroke-miterlimit="20" transform="translate(4,5)"/>
  <!-- white outline -->
  <path d="M 31.87 17.42 L 36.25 16.30 L 37.18 4.11 L 42.82 4.11 L 43.75 16.30 L 46.70 16.95 L 50.90 18.62 L 58.81 9.30 L 63.38 12.63 L 56.97 23.03 L 58.96 25.29 L 61.38 29.10 L 73.26 26.22 L 75.01 31.60 L 63.70 36.25 L 63.99 39.25 L 63.70 43.75 L 75.01 48.40 L 73.26 53.78 L 61.38 50.90 L 59.85 53.49 L 56.97 56.97 L 63.38 67.37 L 58.81 70.70 L 50.90 61.38 L 48.13 62.58 L 43.75 63.70 L 42.82 75.89 L 37.18 75.89 L 36.25 63.70 L 33.30 63.05 L 29.10 61.38 L 21.19 70.70 L 16.62 67.37 L 23.03 56.97 L 21.04 54.71 L 18.62 50.90 L 6.74 53.78 L 4.99 48.40 L 16.30 43.75 L 16.01 40.75 L 16.30 36.25 L 4.99 31.60 L 6.74 26.22 L 18.62 29.10 L 20.15 26.51 L 23.03 23.03 L 16.62 12.63 L 21.19 9.30 L 29.10 18.62 Z" fill="#fff" stroke="#fff" stroke-width="10" stroke-linejoin="miter" stroke-miterlimit="20"/>
  <!-- gear body -->
  <path d="M 31.87 17.42 L 36.25 16.30 L 37.18 4.11 L 42.82 4.11 L 43.75 16.30 L 46.70 16.95 L 50.90 18.62 L 58.81 9.30 L 63.38 12.63 L 56.97 23.03 L 58.96 25.29 L 61.38 29.10 L 73.26 26.22 L 75.01 31.60 L 63.70 36.25 L 63.99 39.25 L 63.70 43.75 L 75.01 48.40 L 73.26 53.78 L 61.38 50.90 L 59.85 53.49 L 56.97 56.97 L 63.38 67.37 L 58.81 70.70 L 50.90 61.38 L 48.13 62.58 L 43.75 63.70 L 42.82 75.89 L 37.18 75.89 L 36.25 63.70 L 33.30 63.05 L 29.10 61.38 L 21.19 70.70 L 16.62 67.37 L 23.03 56.97 L 21.04 54.71 L 18.62 50.90 L 6.74 53.78 L 4.99 48.40 L 16.30 43.75 L 16.01 40.75 L 16.30 36.25 L 4.99 31.60 L 6.74 26.22 L 18.62 29.10 L 20.15 26.51 L 23.03 23.03 L 16.62 12.63 L 21.19 9.30 L 29.10 18.62 Z" fill="#1a1a1a" stroke="#1a1a1a" stroke-width="2" stroke-linejoin="miter" stroke-miterlimit="20"/>
  <!-- inner circle -->
  <circle cx="40" cy="40" r="14" fill="#fff" stroke="#1a1a1a" stroke-width="3"/>
  <!-- lightning bolt centered -->
  <path d="M43 26 L34 40 L41 40 L37 54 L46 40 L39 40 Z" fill="#fff" stroke="#1a1a1a" stroke-width="2.5" stroke-linejoin="round"/>
</svg>