<svg xmlns="http://www.w3.org/2000/svg" width="72" height="72" viewBox="0 0 88 88" fill="none">
  <path d="M 36.55 23.30 L 40.56 22.27 L 41.33 10.10 L 46.67 10.10 L 47.44 22.27 L 50.14 22.87 L 53.99 24.40 L 61.76 15.01 L 66.08 18.15 L 59.56 28.44 L 61.38 30.52 L 63.60 34.01 L 75.41 30.99 L 77.06 36.06 L 65.73 40.56 L 65.99 43.31 L 65.73 47.44 L 77.06 51.94 L 75.41 57.01 L 63.60 53.99 L 62.20 56.37 L 59.56 59.56 L 66.08 69.85 L 61.76 72.99 L 53.99 63.60 L 51.45 64.70 L 47.44 65.73 L 46.67 77.90 L 41.33 77.90 L 40.56 65.73 L 37.86 65.13 L 34.01 63.60 L 26.24 72.99 L 21.92 69.85 L 28.44 59.56 L 26.62 57.48 L 24.40 53.99 L 12.59 57.01 L 10.94 51.94 L 22.27 47.44 L 22.01 44.69 L 22.27 40.56 L 10.94 36.06 L 12.59 30.99 L 24.40 34.01 L 25.80 31.63 L 28.44 28.44 L 21.92 18.15 L 26.24 15.01 L 34.01 24.40 Z" fill="#c0c0c0" stroke="#c0c0c0" stroke-width="10" stroke-linejoin="miter" stroke-miterlimit="20" transform="translate(3,4)"/>
  <path d="M 36.55 23.30 L 40.56 22.27 L 41.33 10.10 L 46.67 10.10 L 47.44 22.27 L 50.14 22.87 L 53.99 24.40 L 61.76 15.01 L 66.08 18.15 L 59.56 28.44 L 61.38 30.52 L 63.60 34.01 L 75.41 30.99 L 77.06 36.06 L 65.73 40.56 L 65.99 43.31 L 65.73 47.44 L 77.06 51.94 L 75.41 57.01 L 63.60 53.99 L 62.20 56.37 L 59.56 59.56 L 66.08 69.85 L 61.76 72.99 L 53.99 63.60 L 51.45 64.70 L 47.44 65.73 L 46.67 77.90 L 41.33 77.90 L 40.56 65.73 L 37.86 65.13 L 34.01 63.60 L 26.24 72.99 L 21.92 69.85 L 28.44 59.56 L 26.62 57.48 L 24.40 53.99 L 12.59 57.01 L 10.94 51.94 L 22.27 47.44 L 22.01 44.69 L 22.27 40.56 L 10.94 36.06 L 12.59 30.99 L 24.40 34.01 L 25.80 31.63 L 28.44 28.44 L 21.92 18.15 L 26.24 15.01 L 34.01 24.40 Z" fill="#fff" stroke="#fff" stroke-width="10" stroke-linejoin="miter" stroke-miterlimit="20"/>
  <path d="M 36.55 23.30 L 40.56 22.27 L 41.33 10.10 L 46.67 10.10 L 47.44 22.27 L 50.14 22.87 L 53.99 24.40 L 61.76 15.01 L 66.08 18.15 L 59.56 28.44 L 61.38 30.52 L 63.60 34.01 L 75.41 30.99 L 77.06 36.06 L 65.73 40.56 L 65.99 43.31 L 65.73 47.44 L 77.06 51.94 L 75.41 57.01 L 63.60 53.99 L 62.20 56.37 L 59.56 59.56 L 66.08 69.85 L 61.76 72.99 L 53.99 63.60 L 51.45 64.70 L 47.44 65.73 L 46.67 77.90 L 41.33 77.90 L 40.56 65.73 L 37.86 65.13 L 34.01 63.60 L 26.24 72.99 L 21.92 69.85 L 28.44 59.56 L 26.62 57.48 L 24.40 53.99 L 12.59 57.01 L 10.94 51.94 L 22.27 47.44 L 22.01 44.69 L 22.27 40.56 L 10.94 36.06 L 12.59 30.99 L 24.40 34.01 L 25.80 31.63 L 28.44 28.44 L 21.92 18.15 L 26.24 15.01 L 34.01 24.40 Z" fill="#1a1a1a" stroke="#1a1a1a" stroke-width="5" stroke-linejoin="miter" stroke-miterlimit="20"/>
  <circle cx="44" cy="44" r="15" fill="#fff" stroke="#1a1a1a" stroke-width="5"/>
  <path d="M47 30 L38 44 L45 44 L41 58 L50 44 L43 44 Z" fill="#fff" stroke="#1a1a1a" stroke-width="2.5" stroke-linejoin="round"/>
</svg>