<svg xmlns="http://www.w3.org/2000/svg" width="88" height="88" viewBox="0 0 88 88" fill="none">
  <defs>
    <filter id="sticker" x="-20%" y="-20%" width="140%" height="140%">
      <feMorphology in="SourceAlpha" operator="dilate" radius="4" result="e"/>
      <feFlood flood-color="#ffffff" result="w"/>
      <feComposite in="w" in2="e" operator="in" result="wo"/>
      <feOffset dx="3" dy="4" in="e" result="so"/>
      <feFlood flood-color="#bebebe" result="sc"/>
      <feComposite in="sc" in2="so" operator="in" result="s"/>
      <feMerge>
        <feMergeNode in="s"/>
        <feMergeNode in="wo"/>
        <feMergeNode in="SourceGraphic"/>
      </feMerge>
    </filter>
  </defs>
  <g filter="url(#sticker)" transform="translate(8,8)">
    <path d="M38 4 l3.5 5.5 6.5-1 2 6.5 6.5 2-1 6.5 5.5 3.5-3.5 5.5 3.5 5.5-5.5 3.5 1 6.5-6.5 2-2 6.5-6.5-1-3.5 5.5-5.5-3.5-5.5 3.5-3.5-5.5-6.5 1-2-6.5-6.5-2 1-6.5-5.5-3.5 3.5-5.5-3.5-5.5 5.5-3.5-1-6.5 6.5-2 2-6.5 6.5 1z" fill="#1a1a1a" transform="translate(2,2)"/>
    <path d="M38 4 l3.5 5.5 6.5-1 2 6.5 6.5 2-1 6.5 5.5 3.5-3.5 5.5 3.5 5.5-5.5 3.5 1 6.5-6.5 2-2 6.5-6.5-1-3.5 5.5-5.5-3.5-5.5 3.5-3.5-5.5-6.5 1-2-6.5-6.5-2 1-6.5-5.5-3.5 3.5-5.5-3.5-5.5 5.5-3.5-1-6.5 6.5-2 2-6.5 6.5 1z" fill="#1a1a1a" stroke="#1a1a1a" stroke-width="2.8" stroke-linejoin="round"/>
    <circle cx="38" cy="38" r="16" fill="#ffffff" stroke="#1a1a1a" stroke-width="2.2"/>
    <path d="M41 22 L33 38 L39 38 L35 54 L45 36 L39 36 Z" fill="#ffffff" stroke="#1a1a1a" stroke-width="2" stroke-linejoin="round"/>
  </g>
</svg>
