<svg xmlns="http://www.w3.org/2000/svg" width="80" height="80" viewBox="0 0 96 96" fill="none">
  <rect x="4" y="6" width="72" height="44" rx="7" fill="#c8c8c8" stroke="#c8c8c8" stroke-width="12" stroke-linejoin="round" transform="translate(4,5)"/>
  <rect x="30" y="51" width="20" height="8" fill="#c8c8c8" transform="translate(4,5)"/>
  <rect x="14" y="59" width="52" height="6" rx="3" fill="#c8c8c8" stroke="#c8c8c8" stroke-width="8" stroke-linejoin="round" transform="translate(4,5)"/>
  <rect x="4" y="6" width="72" height="44" rx="7" fill="#fff" stroke="#fff" stroke-width="12" stroke-linejoin="round"/>
  <rect x="30" y="51" width="20" height="8" fill="#fff"/>
  <rect x="14" y="59" width="52" height="6" rx="3" fill="#fff" stroke="#fff" stroke-width="8" stroke-linejoin="round"/>
  <rect x="4" y="6" width="72" height="44" rx="7" fill="#1a1a1a"/>
  <rect x="10" y="11" width="60" height="32" rx="4" fill="#fff" stroke="#1a1a1a" stroke-width="2"/>
  <rect x="13" y="14" width="18" height="11" rx="2" fill="#1a1a1a"/>
  <rect x="35" y="14" width="30" height="3" rx="1.5" fill="#1a1a1a" opacity="0.25"/>
  <rect x="35" y="19" width="20" height="3" rx="1.5" fill="#1a1a1a" opacity="0.2"/>
  <rect x="13" y="29" width="54" height="2.5" rx="1.2" fill="#1a1a1a" opacity="0.2"/>
  <rect x="13" y="34" width="36" height="2.5" rx="1.2" fill="#1a1a1a" opacity="0.2"/>
  <path d="M50 22 l-2 6 1.6-1 1 3 1.3-0.5-1-3 2-0.5z" fill="#fff" stroke="#1a1a1a" stroke-width="1.2" stroke-linejoin="round"/>
  <rect x="30" y="50" width="20" height="10" fill="#1a1a1a"/>
  <rect x="14" y="59" width="52" height="6" rx="3" fill="#1a1a1a"/>
</svg>
