<svg xmlns="http://www.w3.org/2000/svg" width="64" height="56" viewBox="0 0 88 78" fill="none">
  <rect x="6" y="6" width="76" height="46" rx="8" fill="#c0c0c0" stroke="#c0c0c0" stroke-width="12" stroke-linejoin="round" transform="translate(3,4)"/>
  <rect x="30" y="53" width="28" height="9" fill="#c0c0c0" transform="translate(3,4)"/>
  <rect x="14" y="62" width="60" height="7" rx="3.5" fill="#c0c0c0" stroke="#c0c0c0" stroke-width="8" stroke-linejoin="round" transform="translate(3,4)"/>
  <rect x="6" y="6" width="76" height="46" rx="8" fill="#fff" stroke="#fff" stroke-width="12" stroke-linejoin="round"/>
  <rect x="30" y="53" width="28" height="9" fill="#fff"/>
  <rect x="14" y="62" width="60" height="7" rx="3.5" fill="#fff" stroke="#fff" stroke-width="8" stroke-linejoin="round"/>
  <rect x="6" y="6" width="76" height="46" rx="8" fill="#1a1a1a" stroke="#1a1a1a" stroke-width="5" stroke-linejoin="round"/>
  <rect x="13" y="12" width="62" height="33" rx="4" fill="#fff" stroke="#1a1a1a" stroke-width="2.5"/>
  <rect x="17" y="21" width="18" height="14" rx="2.5" fill="#1a1a1a"/>
  <rect x="40" y="22" width="28" height="4.5" rx="2" fill="#1a1a1a" opacity="0.4"/>
  <rect x="40" y="29" width="20" height="4.5" rx="2" fill="#1a1a1a" opacity="0.25"/>
  <rect x="30" y="52" width="28" height="11" fill="#1a1a1a"/>
  <rect x="14" y="62" width="60" height="7" rx="3.5" fill="#1a1a1a" stroke="#1a1a1a" stroke-width="5" stroke-linejoin="round"/>
</svg>
