<svg xmlns="http://www.w3.org/2000/svg" width="80" height="88" viewBox="0 0 80 88" fill="none">
  <defs>
    <filter id="sticker" x="-20%" y="-15%" width="140%" height="130%">
      <feMorphology in="SourceAlpha" operator="dilate" radius="4" result="e"/>
      <feFlood flood-color="#ffffff" result="w"/>
      <feComposite in="w" in2="e" operator="in" result="wo"/>
      <feOffset dx="3" dy="4" in="e" result="so"/>
      <feFlood flood-color="#bebebe" result="sc"/>
      <feComposite in="sc" in2="so" operator="in" result="s"/>
      <feMerge>
        <feMergeNode in="s"/>
        <feMergeNode in="wo"/>
        <feMergeNode in="SourceGraphic"/>
      </feMerge>
    </filter>
  </defs>
  <g filter="url(#sticker)" transform="translate(8,8)">
    <rect x="9" y="12" width="48" height="38" rx="8" fill="#1a1a1a"/>
    <rect x="27" y="51" width="12" height="8" fill="#1a1a1a"/>
    <rect x="18" y="59" width="30" height="5" rx="3" fill="#1a1a1a"/>
    <rect x="7" y="10" width="48" height="38" rx="8" fill="#1a1a1a"/>
    <rect x="7" y="10" width="48" height="38" rx="8" fill="none" stroke="#1a1a1a" stroke-width="3"/>
    <rect x="13" y="15" width="36" height="26" rx="4" fill="#ffffff" stroke="#1a1a1a" stroke-width="2"/>
    <rect x="15" y="17" width="12" height="7" rx="2" fill="#1a1a1a"/>
    <rect x="29" y="17" width="18" height="2.5" rx="1.2" fill="#1a1a1a" opacity="0.3"/>
    <rect x="29" y="22" width="12" height="2.5" rx="1.2" fill="#1a1a1a" opacity="0.2"/>
    <rect x="15" y="27" width="32" height="2" rx="1" fill="#1a1a1a" opacity="0.25"/>
    <rect x="15" y="31" width="20" height="2" rx="1" fill="#1a1a1a" opacity="0.25"/>
    <path d="M35 29l-2 6 1.5-1 1 3 1.2-0.5-1-3 2-0.5z" fill="#ffffff" stroke="#1a1a1a" stroke-width="1.2" stroke-linejoin="round"/>
    <rect x="28" y="49" width="10" height="8" fill="#1a1a1a"/>
    <rect x="17" y="57" width="32" height="5" rx="3" fill="#1a1a1a"/>
  </g>
</svg>
