<svg xmlns="http://www.w3.org/2000/svg" width="72" height="72" viewBox="0 0 88 88" fill="none">
  <rect x="6" y="8" width="76" height="46" rx="8" fill="#c0c0c0" stroke="#c0c0c0" stroke-width="12" stroke-linejoin="round" transform="translate(3,4)"/>
  <rect x="30" y="55" width="28" height="10" fill="#c0c0c0" transform="translate(3,4)"/>
  <rect x="14" y="65" width="60" height="7" rx="3.5" fill="#c0c0c0" stroke="#c0c0c0" stroke-width="8" stroke-linejoin="round" transform="translate(3,4)"/>
  <rect x="6" y="8" width="76" height="46" rx="8" fill="#fff" stroke="#fff" stroke-width="12" stroke-linejoin="round"/>
  <rect x="30" y="55" width="28" height="10" fill="#fff"/>
  <rect x="14" y="65" width="60" height="7" rx="3.5" fill="#fff" stroke="#fff" stroke-width="8" stroke-linejoin="round"/>
  <rect x="6" y="8" width="76" height="46" rx="8" fill="#1a1a1a" stroke="#1a1a1a" stroke-width="5" stroke-linejoin="round"/>
  <rect x="13" y="14" width="62" height="33" rx="4" fill="#fff" stroke="#1a1a1a" stroke-width="2.5"/>
  <rect x="16" y="17" width="18" height="12" rx="2" fill="#1a1a1a"/>
  <rect x="38" y="17" width="32" height="3.5" rx="1.5" fill="#1a1a1a" opacity="0.25"/>
  <rect x="38" y="22" width="22" height="3.5" rx="1.5" fill="#1a1a1a" opacity="0.2"/>
  <rect x="16" y="33" width="56" height="3" rx="1.2" fill="#1a1a1a" opacity="0.2"/>
  <rect x="16" y="39" width="38" height="3" rx="1.2" fill="#1a1a1a" opacity="0.2"/>
  <path d="M56 26 l-2.5 7.5 2-1.2 1.2 3.6 1.6-0.7-1.2-3.6 2.7-0.6z" fill="#fff" stroke="#1a1a1a" stroke-width="1.5" stroke-linejoin="round"/>
  <rect x="30" y="54" width="28" height="12" fill="#1a1a1a"/>
  <rect x="14" y="65" width="60" height="7" rx="3.5" fill="#1a1a1a" stroke="#1a1a1a" stroke-width="5" stroke-linejoin="round"/>
</svg>
