<svg xmlns="http://www.w3.org/2000/svg" width="72" height="72" viewBox="0 0 88 88" fill="none">
  <path d="M44 64 C24 64 8 54 8 44 C8 34 24 24 44 24 C64 24 80 34 80 44 C80 54 64 64 44 64Z" fill="#c0c0c0" stroke="#c0c0c0" stroke-width="12" stroke-linejoin="round" transform="translate(3,4)"/>
  <line x1="18" y1="30" x2="10" y2="18" stroke="#c0c0c0" stroke-width="12" stroke-linecap="round" transform="translate(3,4)"/>
  <line x1="30" y1="24" x2="27" y2="13" stroke="#c0c0c0" stroke-width="12" stroke-linecap="round" transform="translate(3,4)"/>
  <line x1="44" y1="24" x2="44" y2="12" stroke="#c0c0c0" stroke-width="12" stroke-linecap="round" transform="translate(3,4)"/>
  <line x1="58" y1="24" x2="61" y2="13" stroke="#c0c0c0" stroke-width="12" stroke-linecap="round" transform="translate(3,4)"/>
  <line x1="70" y1="30" x2="78" y2="18" stroke="#c0c0c0" stroke-width="12" stroke-linecap="round" transform="translate(3,4)"/>
  <path d="M8 44 C24 64 64 64 80 44" fill="none" stroke="#c0c0c0" stroke-width="12" stroke-linecap="round" transform="translate(3,4)"/>
  <path d="M44 64 C24 64 8 54 8 44 C8 34 24 24 44 24 C64 24 80 34 80 44 C80 54 64 64 44 64Z" fill="#fff" stroke="#fff" stroke-width="12" stroke-linejoin="round"/>
  <line x1="18" y1="30" x2="10" y2="18" stroke="#fff" stroke-width="12" stroke-linecap="round"/>
  <line x1="30" y1="24" x2="27" y2="13" stroke="#fff" stroke-width="12" stroke-linecap="round"/>
  <line x1="44" y1="24" x2="44" y2="12" stroke="#fff" stroke-width="12" stroke-linecap="round"/>
  <line x1="58" y1="24" x2="61" y2="13" stroke="#fff" stroke-width="12" stroke-linecap="round"/>
  <line x1="70" y1="30" x2="78" y2="18" stroke="#fff" stroke-width="12" stroke-linecap="round"/>
  <path d="M8 44 C24 64 64 64 80 44" fill="none" stroke="#fff" stroke-width="12" stroke-linecap="round"/>
  <path d="M44 64 C24 64 8 54 8 44 C8 34 24 24 44 24 C64 24 80 34 80 44 C80 54 64 64 44 64Z" fill="#fff" stroke="#1a1a1a" stroke-width="5"/>
  <circle cx="44" cy="44" r="14" fill="#1a1a1a"/>
  <circle cx="38" cy="38" r="5" fill="#fff"/>
  <circle cx="48" cy="48" r="2.5" fill="#fff"/>
  <line x1="18" y1="30" x2="10" y2="18" stroke="#1a1a1a" stroke-width="5" stroke-linecap="round"/>
  <line x1="30" y1="24" x2="27" y2="13" stroke="#1a1a1a" stroke-width="5" stroke-linecap="round"/>
  <line x1="44" y1="24" x2="44" y2="12" stroke="#1a1a1a" stroke-width="5" stroke-linecap="round"/>
  <line x1="58" y1="24" x2="61" y2="13" stroke="#1a1a1a" stroke-width="5" stroke-linecap="round"/>
  <line x1="70" y1="30" x2="78" y2="18" stroke="#1a1a1a" stroke-width="5" stroke-linecap="round"/>
  <path d="M8 44 C24 64 64 64 80 44" fill="none" stroke="#1a1a1a" stroke-width="5" stroke-linecap="round"/>
</svg>
