<svg xmlns="http://www.w3.org/2000/svg" width="72" height="52" viewBox="0 0 88 68" fill="none">
  <path d="M44 58 C24 58 8 48 8 38 C8 28 24 18 44 18 C64 18 80 28 80 38 C80 48 64 58 44 58Z" fill="#c0c0c0" stroke="#c0c0c0" stroke-width="12" stroke-linejoin="round" transform="translate(3,4)"/>
  <line x1="18" y1="24" x2="10" y2="12" stroke="#c0c0c0" stroke-width="12" stroke-linecap="round" transform="translate(3,4)"/>
  <line x1="30" y1="18" x2="27" y2="7"  stroke="#c0c0c0" stroke-width="12" stroke-linecap="round" transform="translate(3,4)"/>
  <line x1="44" y1="18" x2="44" y2="6"  stroke="#c0c0c0" stroke-width="12" stroke-linecap="round" transform="translate(3,4)"/>
  <line x1="58" y1="18" x2="61" y2="7"  stroke="#c0c0c0" stroke-width="12" stroke-linecap="round" transform="translate(3,4)"/>
  <line x1="70" y1="24" x2="78" y2="12" stroke="#c0c0c0" stroke-width="12" stroke-linecap="round" transform="translate(3,4)"/>
  <path d="M8 38 C24 58 64 58 80 38" fill="none" stroke="#c0c0c0" stroke-width="12" stroke-linecap="round" transform="translate(3,4)"/>
  <path d="M44 58 C24 58 8 48 8 38 C8 28 24 18 44 18 C64 18 80 28 80 38 C80 48 64 58 44 58Z" fill="#fff" stroke="#fff" stroke-width="12" stroke-linejoin="round"/>
  <line x1="18" y1="24" x2="10" y2="12" stroke="#fff" stroke-width="12" stroke-linecap="round"/>
  <line x1="30" y1="18" x2="27" y2="7"  stroke="#fff" stroke-width="12" stroke-linecap="round"/>
  <line x1="44" y1="18" x2="44" y2="6"  stroke="#fff" stroke-width="12" stroke-linecap="round"/>
  <line x1="58" y1="18" x2="61" y2="7"  stroke="#fff" stroke-width="12" stroke-linecap="round"/>
  <line x1="70" y1="24" x2="78" y2="12" stroke="#fff" stroke-width="12" stroke-linecap="round"/>
  <path d="M8 38 C24 58 64 58 80 38" fill="none" stroke="#fff" stroke-width="12" stroke-linecap="round"/>
  <path d="M44 58 C24 58 8 48 8 38 C8 28 24 18 44 18 C64 18 80 28 80 38 C80 48 64 58 44 58Z" fill="#fff" stroke="#1a1a1a" stroke-width="5"/>
  <circle cx="44" cy="38" r="13" fill="#1a1a1a"/>
  <circle cx="38" cy="32" r="4.5" fill="#fff"/>
  <circle cx="47" cy="42" r="2.2" fill="#fff"/>
  <line x1="18" y1="24" x2="10" y2="12" stroke="#1a1a1a" stroke-width="5" stroke-linecap="round"/>
  <line x1="30" y1="18" x2="27" y2="7"  stroke="#1a1a1a" stroke-width="5" stroke-linecap="round"/>
  <line x1="44" y1="18" x2="44" y2="6"  stroke="#1a1a1a" stroke-width="5" stroke-linecap="round"/>
  <line x1="58" y1="18" x2="61" y2="7"  stroke="#1a1a1a" stroke-width="5" stroke-linecap="round"/>
  <line x1="70" y1="24" x2="78" y2="12" stroke="#1a1a1a" stroke-width="5" stroke-linecap="round"/>
  <path d="M8 38 C24 58 64 58 80 38" fill="none" stroke="#1a1a1a" stroke-width="5" stroke-linecap="round"/>
</svg>
