<svg xmlns="http://www.w3.org/2000/svg" width="80" height="80" viewBox="0 0 96 96" fill="none">
  <path d="M40 62 C20 62 6 52 6 40 C6 28 20 18 40 18 C60 18 74 28 74 40 C74 52 60 62 40 62Z" fill="#c8c8c8" stroke="#c8c8c8" stroke-width="12" stroke-linejoin="round" transform="translate(4,5)"/>
  <line x1="14" y1="26" x2="7"  y2="14" stroke="#c8c8c8" stroke-width="12" stroke-linecap="round" transform="translate(4,5)"/>
  <line x1="27" y1="19" x2="24" y2="8"  stroke="#c8c8c8" stroke-width="12" stroke-linecap="round" transform="translate(4,5)"/>
  <line x1="40" y1="18" x2="40" y2="6"  stroke="#c8c8c8" stroke-width="12" stroke-linecap="round" transform="translate(4,5)"/>
  <line x1="53" y1="19" x2="56" y2="8"  stroke="#c8c8c8" stroke-width="12" stroke-linecap="round" transform="translate(4,5)"/>
  <line x1="66" y1="26" x2="73" y2="14" stroke="#c8c8c8" stroke-width="12" stroke-linecap="round" transform="translate(4,5)"/>
  <path d="M6 40 C20 62 60 62 74 40" fill="none" stroke="#c8c8c8" stroke-width="12" stroke-linecap="round" transform="translate(4,5)"/>
  <path d="M40 62 C20 62 6 52 6 40 C6 28 20 18 40 18 C60 18 74 28 74 40 C74 52 60 62 40 62Z" fill="#fff" stroke="#fff" stroke-width="12" stroke-linejoin="round"/>
  <line x1="14" y1="26" x2="7"  y2="14" stroke="#fff" stroke-width="12" stroke-linecap="round"/>
  <line x1="27" y1="19" x2="24" y2="8"  stroke="#fff" stroke-width="12" stroke-linecap="round"/>
  <line x1="40" y1="18" x2="40" y2="6"  stroke="#fff" stroke-width="12" stroke-linecap="round"/>
  <line x1="53" y1="19" x2="56" y2="8"  stroke="#fff" stroke-width="12" stroke-linecap="round"/>
  <line x1="66" y1="26" x2="73" y2="14" stroke="#fff" stroke-width="12" stroke-linecap="round"/>
  <path d="M6 40 C20 62 60 62 74 40" fill="none" stroke="#fff" stroke-width="12" stroke-linecap="round"/>
  <path d="M40 62 C20 62 6 52 6 40 C6 28 20 18 40 18 C60 18 74 28 74 40 C74 52 60 62 40 62Z" fill="#fff" stroke="#1a1a1a" stroke-width="3.5"/>
  <circle cx="40" cy="40" r="14" fill="#1a1a1a"/>
  <circle cx="34" cy="34" r="5" fill="#fff"/>
  <circle cx="45" cy="44" r="2.5" fill="#fff"/>
  <line x1="14" y1="26" x2="7"  y2="14" stroke="#1a1a1a" stroke-width="3.5" stroke-linecap="round"/>
  <line x1="27" y1="19" x2="24" y2="8"  stroke="#1a1a1a" stroke-width="3.5" stroke-linecap="round"/>
  <line x1="40" y1="18" x2="40" y2="6"  stroke="#1a1a1a" stroke-width="3.5" stroke-linecap="round"/>
  <line x1="53" y1="19" x2="56" y2="8"  stroke="#1a1a1a" stroke-width="3.5" stroke-linecap="round"/>
  <line x1="66" y1="26" x2="73" y2="14" stroke="#1a1a1a" stroke-width="3.5" stroke-linecap="round"/>
  <path d="M6 40 C20 62 60 62 74 40" fill="none" stroke="#1a1a1a" stroke-width="3.5" stroke-linecap="round"/>
</svg>
